<?xml version="1.0" encoding="UTF-8"?>
<svg width="1000" height="500" viewBox="0 0 1000 500" xmlns="http://www.w3.org/2000/svg">
  <!-- Simplified world map with just a few countries for demo purposes -->
  
  <!-- USA -->
  <path id="usa" d="M170,120 L220,120 L240,150 L260,150 L280,130 L300,130 L310,140 L330,140 L340,130 L350,140 L355,130 L290,180 L280,190 L260,190 L240,180 L220,170 L200,160 L180,150 L170,130 L170,120" />
  
  <!-- Canada -->
  <path id="canada" d="M170,50 L190,60 L210,55 L230,60 L250,70 L270,65 L290,60 L310,65 L330,70 L350,60 L370,65 L390,70 L410,65 L410,85 L400,90 L380,95 L360,100 L340,105 L320,110 L300,105 L280,110 L260,115 L240,110 L220,105 L200,100 L180,95 L170,90 L170,50" />
  
  <!-- Mexico -->
  <path id="mexico" d="M170,190 L190,195 L210,200 L230,195 L250,200 L270,205 L260,220 L250,230 L240,240 L230,245 L220,240 L210,235 L200,230 L190,225 L180,220 L170,215 L170,190" />
  
  <!-- Brazil -->
  <path id="brazil" d="M320,250 L340,255 L360,260 L380,265 L400,270 L390,290 L380,310 L370,330 L360,350 L340,345 L320,340 L300,335 L290,315 L300,295 L310,275 L320,250" />
  
  <!-- United Kingdom -->
  <path id="uk" d="M470,100 L480,105 L490,110 L495,115 L490,120 L485,125 L480,120 L475,115 L470,110 L470,100" />
  
  <!-- France -->
  <path id="france" d="M480,130 L490,135 L500,140 L510,135 L520,130 L525,135 L520,140 L515,145 L510,150 L505,155 L495,150 L485,145 L480,140 L480,130" />
  
  <!-- Germany -->
  <path id="germany" d="M510,115 L520,120 L530,125 L540,120 L550,115 L560,120 L555,125 L550,130 L545,135 L540,140 L535,135 L530,130 L525,125 L520,120 L515,115 L510,115" />
  
  <!-- Italy -->
  <path id="italy" d="M520,145 L525,150 L530,155 L535,160 L540,165 L545,170 L550,175 L545,180 L540,175 L535,170 L530,165 L525,160 L520,155 L515,150 L520,145" />
  
  <!-- Russia -->
  <path id="russia" d="M570,50 L590,55 L610,60 L630,65 L650,70 L670,75 L690,80 L710,85 L730,80 L750,75 L770,70 L790,65 L810,60 L830,55 L850,50 L870,55 L890,60 L890,100 L870,105 L850,110 L830,115 L810,120 L790,125 L770,130 L750,125 L730,120 L710,115 L690,110 L670,105 L650,100 L630,95 L610,90 L590,85 L570,80 L570,50" />
  
  <!-- China -->
  <path id="china" d="M750,140 L770,145 L790,150 L810,155 L830,160 L850,165 L870,170 L870,200 L850,205 L830,210 L810,205 L790,200 L770,195 L750,190 L730,185 L730,160 L750,150 L750,140" />
  
  <!-- India -->
  <path id="india" d="M710,190 L730,195 L750,200 L770,205 L770,225 L750,230 L730,235 L710,240 L690,235 L690,215 L700,205 L710,190" />
  
  <!-- Australia -->
  <path id="australia" d="M800,300 L820,305 L840,310 L860,315 L880,320 L880,350 L860,355 L840,360 L820,355 L800,350 L780,345 L780,325 L800,320 L800,300" />
  
  <!-- South Africa -->
  <path id="south_africa" d="M550,300 L570,305 L590,310 L610,315 L610,335 L590,340 L570,345 L550,340 L530,335 L530,315 L550,310 L550,300" />
  
  <!-- Japan -->
  <path id="japan" d="M880,130 L890,135 L900,140 L900,160 L890,165 L880,160 L870,155 L870,135 L880,130" />
</svg>