<svg width="1401" height="167" viewBox="0 0 1401 167" fill="none" xmlns="http://www.w3.org/2000/svg">
<path fill-rule="evenodd" clip-rule="evenodd" d="M1397.7 94.5994L1397.1 89.4994L1393.5 82.8994L1394.8 76.3994L1392 71.2994L1383.8 62.3994L1379 63.5994L1379.2 67.5994L1384.3 74.7994L1385.3 82.5994L1383.6 85.0994L1379.1 91.4994L1374 88.3994V99.7994L1367.7 98.4994L1358 100.399L1356 104.799L1352.1 108.099L1351 112.199L1346.7 114.199L1350.7 118.599L1354.8 120.399L1355.7 126.199L1359.3 128.699L1361.8 125.999L1361 115.099L1353.6 110.399L1359.8 110.199L1364.9 107.199L1373.5 105.799L1375.9 110.599L1380.6 113.099L1385 105.699L1394.2 105.299L1399.6 102.299L1400.2 97.7994L1397.7 94.5994ZM1374.1 110.9L1372.5 108.7L1367.9 107.3L1366.9 110L1363.5 109.2L1362.2 113.1L1363.4 116.1L1367.7 117.9L1367.6 114.2L1369.7 112.7L1372.8 114.8L1374.1 110.9Z" fill="#ECECEC"/>
<path id="usa" d="M1397.1 89.4994L1397.2 89.4877C1397.2 89.475 1397.19 89.4627 1397.19 89.4515L1397.1 89.4994ZM1397.7 94.5994L1397.6 94.6111C1397.6 94.6293 1397.61 94.6465 1397.62 94.661L1397.7 94.5994ZM1393.5 82.8994L1393.4 82.8798C1393.4 82.9028 1393.4 82.9267 1393.41 82.9473L1393.5 82.8994ZM1394.8 76.3994L1394.9 76.419C1394.9 76.3959 1394.9 76.3719 1394.89 76.3513L1394.8 76.3994ZM1392 71.2994L1392.09 71.2513C1392.08 71.2442 1392.08 71.2376 1392.07 71.2316L1392 71.2994ZM1383.8 62.3994L1383.87 62.3317C1383.85 62.3047 1383.81 62.2935 1383.78 62.3024L1383.8 62.3994ZM1379 63.5994L1378.98 63.5024C1378.93 63.514 1378.9 63.5567 1378.9 63.6044L1379 63.5994ZM1379.2 67.5994L1379.1 67.6044C1379.1 67.6234 1379.11 67.6417 1379.12 67.6572L1379.2 67.5994ZM1384.3 74.7994L1384.4 74.7867C1384.4 74.7704 1384.39 74.755 1384.38 74.7416L1384.3 74.7994ZM1385.3 82.5994L1385.38 82.6556C1385.4 82.6354 1385.4 82.6109 1385.4 82.5867L1385.3 82.5994ZM1383.6 85.0994L1383.68 85.1569L1383.68 85.1556L1383.6 85.0994ZM1379.1 91.4994L1379.05 91.5849C1379.09 91.6122 1379.15 91.6 1379.18 91.5569L1379.1 91.4994ZM1374 88.3994L1374.05 88.3139C1374.02 88.2952 1373.98 88.2945 1373.95 88.3122C1373.92 88.3299 1373.9 88.3633 1373.9 88.3994H1374ZM1374 99.7994L1373.98 99.8974C1374.01 99.9034 1374.04 99.8959 1374.06 99.877C1374.09 99.858 1374.1 99.8295 1374.1 99.7994H1374ZM1367.7 98.4994L1367.72 98.4015C1367.71 98.3988 1367.69 98.3987 1367.68 98.4013L1367.7 98.4994ZM1358 100.399L1357.98 100.301C1357.95 100.307 1357.92 100.329 1357.91 100.358L1358 100.399ZM1356 104.799L1356.06 104.876C1356.08 104.866 1356.09 104.854 1356.09 104.841L1356 104.799ZM1352.1 108.099L1352.04 108.023C1352.02 108.036 1352.01 108.054 1352 108.073L1352.1 108.099ZM1351 112.199L1351.04 112.29C1351.07 112.278 1351.09 112.254 1351.1 112.225L1351 112.199ZM1346.7 114.199L1346.66 114.109C1346.63 114.122 1346.61 114.148 1346.6 114.18C1346.6 114.211 1346.6 114.243 1346.63 114.267L1346.7 114.199ZM1350.7 118.599L1350.63 118.667C1350.64 118.677 1350.65 118.685 1350.66 118.691L1350.7 118.599ZM1354.8 120.399L1354.9 120.384C1354.89 120.35 1354.87 120.322 1354.84 120.308L1354.8 120.399ZM1355.7 126.199L1355.6 126.215C1355.61 126.242 1355.62 126.266 1355.64 126.282L1355.7 126.199ZM1359.3 128.699L1359.24 128.782C1359.28 128.81 1359.34 128.804 1359.37 128.767L1359.3 128.699ZM1361.8 125.999L1361.87 126.067C1361.89 126.047 1361.9 126.02 1361.9 125.992L1361.8 125.999ZM1361 115.099L1361.1 115.092C1361.1 115.061 1361.08 115.032 1361.05 115.015L1361 115.099ZM1353.6 110.399L1353.6 110.299C1353.55 110.301 1353.52 110.331 1353.5 110.373C1353.49 110.415 1353.51 110.46 1353.55 110.484L1353.6 110.399ZM1359.8 110.199L1359.8 110.299C1359.82 110.299 1359.84 110.294 1359.85 110.286L1359.8 110.199ZM1364.9 107.199L1364.88 107.101C1364.87 107.103 1364.86 107.107 1364.85 107.113L1364.9 107.199ZM1373.5 105.799L1373.59 105.755C1373.57 105.716 1373.53 105.694 1373.48 105.701L1373.5 105.799ZM1375.9 110.599L1375.81 110.644C1375.82 110.663 1375.83 110.678 1375.85 110.688L1375.9 110.599ZM1380.6 113.099L1380.55 113.188C1380.6 113.213 1380.66 113.196 1380.69 113.151L1380.6 113.099ZM1385 105.699L1385 105.6C1384.96 105.601 1384.93 105.619 1384.91 105.648L1385 105.699ZM1394.2 105.299L1394.2 105.399C1394.22 105.399 1394.24 105.394 1394.25 105.387L1394.2 105.299ZM1399.6 102.299L1399.65 102.387C1399.68 102.371 1399.7 102.344 1399.7 102.313L1399.6 102.299ZM1400.2 97.7994L1400.3 97.8126C1400.3 97.786 1400.3 97.759 1400.28 97.7379L1400.2 97.7994ZM1372.5 108.7L1372.58 108.641C1372.57 108.623 1372.55 108.61 1372.53 108.604L1372.5 108.7ZM1374.1 110.9L1374.2 110.931C1374.21 110.901 1374.2 110.867 1374.18 110.841L1374.1 110.9ZM1367.9 107.3L1367.93 107.204C1367.88 107.189 1367.82 107.215 1367.81 107.265L1367.9 107.3ZM1366.9 110L1366.88 110.097C1366.93 110.109 1366.98 110.082 1366.99 110.035L1366.9 110ZM1363.5 109.2L1363.52 109.102C1363.47 109.091 1363.42 109.119 1363.41 109.168L1363.5 109.2ZM1362.2 113.1L1362.11 113.068C1362.1 113.091 1362.1 113.115 1362.11 113.137L1362.2 113.1ZM1363.4 116.1L1363.31 116.137C1363.32 116.162 1363.34 116.182 1363.36 116.192L1363.4 116.1ZM1367.7 117.9L1367.66 117.992C1367.69 118.005 1367.73 118.001 1367.76 117.982C1367.78 117.963 1367.8 117.931 1367.8 117.897L1367.7 117.9ZM1367.6 114.2L1367.54 114.118C1367.52 114.138 1367.5 114.169 1367.5 114.202L1367.6 114.2ZM1369.7 112.7L1369.76 112.617C1369.72 112.594 1369.68 112.594 1369.64 112.618L1369.7 112.7ZM1372.8 114.8L1372.74 114.883C1372.77 114.9 1372.8 114.905 1372.83 114.895C1372.86 114.884 1372.89 114.861 1372.9 114.831L1372.8 114.8ZM1397 89.5111L1397.6 94.6111L1397.8 94.5877L1397.2 89.4877L1397 89.5111ZM1393.41 82.9473L1397.01 89.5473L1397.19 89.4515L1393.59 82.8515L1393.41 82.9473ZM1394.7 76.3798L1393.4 82.8798L1393.6 82.919L1394.9 76.419L1394.7 76.3798ZM1391.91 71.3475L1394.71 76.4475L1394.89 76.3513L1392.09 71.2513L1391.91 71.3475ZM1383.73 62.4672L1391.93 71.3672L1392.07 71.2316L1383.87 62.3317L1383.73 62.4672ZM1379.02 63.6964L1383.82 62.4964L1383.78 62.3024L1378.98 63.5024L1379.02 63.6964ZM1379.3 67.5944L1379.1 63.5944L1378.9 63.6044L1379.1 67.6044L1379.3 67.5944ZM1384.38 74.7416L1379.28 67.5416L1379.12 67.6572L1384.22 74.8572L1384.38 74.7416ZM1385.4 82.5867L1384.4 74.7867L1384.2 74.8121L1385.2 82.6121L1385.4 82.5867ZM1383.68 85.1556L1385.38 82.6556L1385.22 82.5432L1383.52 85.0432L1383.68 85.1556ZM1379.18 91.5569L1383.68 85.1569L1383.52 85.0419L1379.02 91.4419L1379.18 91.5569ZM1373.95 88.4849L1379.05 91.5849L1379.15 91.414L1374.05 88.3139L1373.95 88.4849ZM1374.1 99.7994V88.3994H1373.9V99.7994H1374.1ZM1367.68 98.5973L1373.98 99.8974L1374.02 99.7015L1367.72 98.4015L1367.68 98.5973ZM1358.02 100.498L1367.72 98.5975L1367.68 98.4013L1357.98 100.301L1358.02 100.498ZM1356.09 104.841L1358.09 100.441L1357.91 100.358L1355.91 104.758L1356.09 104.841ZM1352.16 108.176L1356.06 104.876L1355.94 104.723L1352.04 108.023L1352.16 108.176ZM1351.1 112.225L1352.2 108.125L1352 108.073L1350.9 112.174L1351.1 112.225ZM1346.74 114.29L1351.04 112.29L1350.96 112.109L1346.66 114.109L1346.74 114.29ZM1350.77 118.532L1346.77 114.132L1346.63 114.267L1350.63 118.667L1350.77 118.532ZM1354.84 120.308L1350.74 118.508L1350.66 118.691L1354.76 120.491L1354.84 120.308ZM1355.8 126.184L1354.9 120.384L1354.7 120.415L1355.6 126.215L1355.8 126.184ZM1359.36 128.617L1355.76 126.117L1355.64 126.282L1359.24 128.782L1359.36 128.617ZM1361.73 125.931L1359.23 128.631L1359.37 128.767L1361.87 126.067L1361.73 125.931ZM1360.9 115.107L1361.7 126.007L1361.9 125.992L1361.1 115.092L1360.9 115.107ZM1353.55 110.484L1360.95 115.184L1361.05 115.015L1353.65 110.315L1353.55 110.484ZM1359.8 110.099L1353.6 110.299L1353.6 110.499L1359.8 110.299L1359.8 110.099ZM1364.85 107.113L1359.75 110.113L1359.85 110.286L1364.95 107.286L1364.85 107.113ZM1373.48 105.701L1364.88 107.101L1364.92 107.298L1373.52 105.898L1373.48 105.701ZM1375.99 110.555L1373.59 105.755L1373.41 105.844L1375.81 110.644L1375.99 110.555ZM1380.65 113.011L1375.95 110.511L1375.85 110.688L1380.55 113.188L1380.65 113.011ZM1384.91 105.648L1380.51 113.048L1380.69 113.151L1385.09 105.751L1384.91 105.648ZM1394.2 105.2L1385 105.6L1385 105.799L1394.2 105.399L1394.2 105.2ZM1399.55 102.212L1394.15 105.212L1394.25 105.387L1399.65 102.387L1399.55 102.212ZM1400.1 97.7862L1399.5 102.286L1399.7 102.313L1400.3 97.8126L1400.1 97.7862ZM1397.62 94.661L1400.12 97.861L1400.28 97.7379L1397.78 94.5378L1397.62 94.661ZM1372.42 108.759L1374.02 110.959L1374.18 110.841L1372.58 108.641L1372.42 108.759ZM1367.87 107.395L1372.47 108.795L1372.53 108.604L1367.93 107.204L1367.87 107.395ZM1366.99 110.035L1367.99 107.335L1367.81 107.265L1366.81 109.965L1366.99 110.035ZM1363.48 109.297L1366.88 110.097L1366.92 109.902L1363.52 109.102L1363.48 109.297ZM1362.3 113.131L1363.6 109.231L1363.41 109.168L1362.11 113.068L1362.3 113.131ZM1363.49 116.063L1362.29 113.063L1362.11 113.137L1363.31 116.137L1363.49 116.063ZM1367.74 117.808L1363.44 116.008L1363.36 116.192L1367.66 117.992L1367.74 117.808ZM1367.5 114.202L1367.6 117.902L1367.8 117.897L1367.7 114.197L1367.5 114.202ZM1369.64 112.618L1367.54 114.118L1367.66 114.281L1369.76 112.781L1369.64 112.618ZM1372.86 114.717L1369.76 112.617L1369.64 112.783L1372.74 114.883L1372.86 114.717ZM1374.01 110.868L1372.71 114.768L1372.9 114.831L1374.2 110.931L1374.01 110.868Z" fill="black"/>
<path id='germany' d="M678.4 11.1L679.5 11.6L680.9 11.5L683.3 13.1L690.5 14.3L688.1 18.5L687.7 23L686.4 24.1L684.1 23.5L684.3 25.1L680.7 28.6V31.5L683.1 30.5L684.9 33.2L684.8 35L686.3 37.4L684.6 39.3L686.1 44.2L688.9 45L688.4 47.7L683.9 51.3L673.7 49.6L666.3 51.7L665.7 55.5L659.8 56.3L654 53.4L652.1 54.8L642.6 51.9L640.6 49.5L643.3 45.7L644.3 33.1L639.2 26.5L635.5 23.3L627.9 20.9L627.5 16.3L634 15L642.3 16.6L640.8 9.5L645.5 12.2L656.9 7.40001L658.4 2.3L662.6 1L663.4 3.20001L665.6 3.3L668 5.8L671.5 8.70001L674 8.20001L678.4 11.1Z" fill="#ECECEC" stroke="black" stroke-width="0.2" stroke-linecap="round" stroke-linejoin="round"/>
<path id="japan" d="M203.5 20.6L197.4 22.6L192.7 25.1L188.1 27.8L187.6 28.7L193.3 27.4L195.4 29.5L200 28L204.9 25.9L210.3 23.8L207.2 27.1L209.7 27.9L212.2 30.3L217.3 28.9L222.4 28.4L222.7 30.2L224.2 30.4L225.4 30.6L226.9 33.1L222.2 33.7H222.1L218.4 33L213.9 34.2L210.2 34.8L205.5 38.9L202.5 41.2L202.9 41.9L208.4 37.8H209.1L204.4 42.7L201.5 47.1L199 50.7L198.4 53.8L197.6 55.3L197 57L197.1 60.3L197.4 60.8L199.2 60.7L200.8 60L202.2 59.2L205.5 56.1L207.3 51.9L207.2 48L208.6 45.3L211.2 42.2L213.3 40L216 38.5L215.6 40.6L217.8 37.5L219.1 36.9L220.8 34.5L224.6 35.8L227.4 38.2L226.6 41.1L225 44L221.2 46.5L220.8 48.1H221.8L226.1 45.4L227.7 46L227.2 49.7L226.5 52.3L222.8 55.8L220.8 58L218.1 60.4L220.8 61.7L223.3 62.1L227.3 61.2L231 59.5L234 58.6L238.6 56.8L244.4 53L244.5 52.4L244.8 50.5L247.5 49.7L251.4 50L255.4 50.5L260 48.4L260.6 45.9L260.4 45L267.2 40.6L269.9 39.5L277.7 39.4H287L288.1 37.9L289.8 37.6L292.3 36.6L295.1 33.7L298.3 28.8L303.8 24.1L304.9 25.7L308.6 24.7L310.2 26.5L307.3 35L309.5 38.6L309.7 40.7L303.3 43.7L297.3 45.9L291.3 47.8L287.3 51.6L286 53L284.8 56.4L285.5 59.7L287.6 59.9L287.8 57.6L288.9 59L287.9 60.8L284.1 61.8L281.6 61.7L277.4 62.8L275.1 63.1L272 63.4L267 65.3L275.1 64.1L276.2 65.3L268.3 67.2H265L265.4 66.4L263.3 68.2L264.7 68.5L262.2 73.1L256.9 78L257 76.3L255.9 76L254.7 74.4V77.9L255.7 79L255.1 81.4L252.7 83.9L248.2 89L247.8 88.8L250.7 84.4L248.7 82L249.7 76.6L247.8 79.4V83.5L244.6 82.5L247.6 84.5L246.1 90.6L247.5 91.1V93.3L246.5 99.7L241.9 104.4L235.8 106.3L231.4 110.1L228.6 110.5L225.2 112.9L223.9 115L217 119.2L213.2 122.3L209.7 126.1L207.8 130.6V135.1L208.4 140.6L209.9 145.1L209.4 147.9L210.7 155.3L209.7 159.7L209.1 162.2L207.1 166.1L205.3 166.9L202.7 166.1L202.3 163.3L200.5 161.8L198.5 156.3L196.9 151.4L196.5 148.9L198.5 144.6L197.7 141.1L194.6 135.7L192.7 134.7L186.6 137.7L185.7 137.3L183.7 134.3L180.7 132.7L174.3 133.6L169.7 132.8L165.4 133.3L162.9 134.3L163.5 136L162.8 138.6L163.6 139.9L162.4 140.7L160.6 139.8L158.3 141L154.4 140.8L151.1 137.4L146.2 138.2L142.6 136.7L139.1 137.2L134.1 138.7L128 143.4L121.9 146.2L118.2 149.2L116.3 152.1L115.3 156.6L114.9 159.6L115.5 161.8L113.3 162L109.7 160.6L105.8 158.6L104.9 155.6L104.7 151.1L102.3 147.5L101.4 143.7L99.8 139.3L96.6 136.7L92.1 136.9L87.3 141.9L83.3 140L81 138.1L80.6 134.5L79.8 131.2L77.4 128.4L75.3 126.3L74 124H64.6L63.8 126.7H59.5H48.7L37.8 122.2L30.8 119.1L31.7 117.8L24.6 118.5L18.3 119L18.6 115.8L16.5 112.1L14.3 111.3L14.4 109.5L11.5 109.1L10.3 107.4L5.5 106.8L4.60001 105.7L5.39999 102.2L2.89999 95.8L2.39999 86.9L3.29999 85.4L2 83.3L0.5 77.9L2.29999 72.7L1.39999 69.2L5.29999 63.9L8.10001 58.5L9.20001 53.6L14.7 47.6L18.7 41.9L22.7 36.2L27 27.7L28.8 22.4L29.2 19.5L30.6 18.2L36.4 20.4L35.4 26.3L37.6 24.6L40.1 19.5L41.7 14.4H55.8H70.5H75.3H90.4H105.1H119.9H134.8H151.6H168.6H178.8L180.1 12H181.8L180.9 15.4L181.9 16.4L185.2 16.8L189.8 17.8L193.7 19.7L198.1 18.9L203.5 20.6Z" fill="#ECECEC" stroke="black" stroke-width="0.2" stroke-linecap="round" stroke-linejoin="round"/>
</svg>
