<?xml version="1.0" encoding="UTF-8"?>
<svg width="1000" height="500" viewBox="0 0 1000 500" xmlns="http://www.w3.org/2000/svg">
  <!-- Simplified world map with just 3 countries for quick gameplay -->
  
  <!-- USA -->
  <path id="usa" d="M170,120 L220,120 L240,150 L260,150 L280,130 L300,130 L310,140 L330,140 L340,130 L350,140 L355,130 L290,180 L280,190 L260,190 L240,180 L220,170 L200,160 L180,150 L170,130 L170,120" />
  
  <!-- Germany -->
  <path id="germany" d="M510,115 L520,120 L530,125 L540,120 L550,115 L560,120 L555,125 L550,130 L545,135 L540,140 L535,135 L530,130 L525,125 L520,120 L515,115 L510,115" />
  
  <!-- Japan -->
  <path id="japan" d="M880,130 L890,135 L900,140 L900,160 L890,165 L880,160 L870,155 L870,135 L880,130" />
</svg>